<svg width="145" height="40" viewBox="0 0 145 40" fill="none" xmlns="http://www.w3.org/2000/svg">
    <path fill-rule="evenodd" clip-rule="evenodd" d="M39.9048 19.997C39.9048 23.9532 38.7344 27.8205 36.5417 31.11C34.349 34.3994 31.2324 36.9632 27.586 38.4772C23.9397 39.9911 19.9273 40.3872 16.0564 39.6154C12.1854 38.8436 8.62973 36.9385 5.83892 34.1411C3.04812 31.3437 1.14757 27.7795 0.377586 23.8994C-0.392395 20.0192 0.00278658 15.9974 1.51316 12.3423C3.02353 8.68732 5.58125 5.56332 8.86289 3.36539C12.1445 1.16746 16.0027 -0.00567553 19.9495 -0.00567553C22.5702 -0.00639162 25.1655 0.510502 27.5869 1.51548C30.0083 2.52046 32.2084 3.99382 34.0616 5.85139C35.9148 7.70895 37.3846 9.91432 38.3872 12.3415C39.3898 14.7687 39.9055 17.3701 39.9048 19.997Z" fill="#D20A11"/>
    <path fill-rule="evenodd" clip-rule="evenodd" d="M11.2445 10.3229V17.1849C11.6836 16.6065 12.2491 16.1367 12.8976 15.8116C13.5462 15.4866 14.2604 15.315 14.9855 15.31C15.6794 15.2992 16.3668 15.4445 16.9973 15.7351C17.5386 15.9692 18.0065 16.3459 18.3512 16.8252C18.6561 17.2647 18.8688 17.7616 18.9765 18.2859C19.1098 19.1054 19.1662 19.9357 19.1451 20.7658V28.1019H15.8827V21.4907C15.9278 20.6543 15.8675 19.8156 15.7032 18.9944C15.5852 18.6495 15.3555 18.3541 15.0507 18.1551C14.702 17.9335 14.2943 17.8232 13.8817 17.8389C13.3744 17.8319 12.8759 17.972 12.4462 18.2423C12.0151 18.5304 11.6948 18.9572 11.5382 19.4522C11.3075 20.224 11.2083 21.0292 11.2445 21.834V28.1019H8.00928V10.3229H11.2717H11.2445Z" fill="white"/>
    <path fill-rule="evenodd" clip-rule="evenodd" d="M23.9954 10.3229V17.1849C24.4344 16.6065 24.9999 16.1367 25.6484 15.8116C26.297 15.4866 27.0112 15.315 27.7363 15.31C28.4319 15.2995 29.1211 15.4448 29.7536 15.7351C30.2929 15.97 30.7588 16.3467 31.1021 16.8252C31.4069 17.2647 31.6196 17.7616 31.7274 18.2859C31.8606 19.1054 31.9171 19.9357 31.8959 20.7658V28.1019H28.6607V21.4907C28.705 20.6541 28.6429 19.8153 28.4758 18.9944C28.3577 18.6495 28.1281 18.3541 27.8233 18.1551C27.4747 17.9332 27.0669 17.8229 26.6543 17.8389C26.147 17.8319 25.6485 17.972 25.2188 18.2423C24.7816 18.529 24.4539 18.9554 24.289 19.4522C24.0622 20.2248 23.963 21.0294 23.9954 21.834V28.1019H20.7329V10.3229H23.9954Z" fill="white"/>
    <path d="M55.9502 23.8003H58.0166C57.9642 24.9233 57.7358 25.8929 57.3315 26.709C56.9347 27.5176 56.3545 28.139 55.5908 28.5732C54.8346 29.0075 53.8875 29.2246 52.7495 29.2246C51.9334 29.2246 51.196 29.0636 50.5371 28.7417C49.8783 28.4198 49.313 27.9593 48.8413 27.3604C48.3771 26.7539 48.0215 26.0277 47.7744 25.1816C47.5273 24.3356 47.4038 23.3848 47.4038 22.3291V19.3081C47.4038 18.2599 47.5273 17.3128 47.7744 16.4668C48.029 15.6208 48.3921 14.8983 48.8638 14.2993C49.3429 13.6929 49.9232 13.2287 50.6045 12.9067C51.2933 12.5848 52.0719 12.4238 52.9404 12.4238C54.0036 12.4238 54.902 12.6372 55.6357 13.064C56.377 13.4832 56.946 14.1009 57.3428 14.917C57.7471 15.7256 57.9717 16.7176 58.0166 17.8931H55.9502C55.8978 17.0321 55.763 16.332 55.5459 15.793C55.3288 15.2464 55.0068 14.8459 54.5801 14.5913C54.1608 14.3293 53.6143 14.1982 52.9404 14.1982C52.3415 14.1982 51.8211 14.318 51.3794 14.5576C50.9451 14.7972 50.5858 15.1416 50.3013 15.5908C50.0243 16.0326 49.8146 16.5679 49.6724 17.1968C49.5376 17.8182 49.4702 18.5145 49.4702 19.2856V22.3291C49.4702 23.0479 49.5264 23.7179 49.6387 24.3394C49.7585 24.9608 49.9456 25.5073 50.2002 25.979C50.4622 26.4432 50.8029 26.8063 51.2222 27.0684C51.6414 27.3304 52.1506 27.4614 52.7495 27.4614C53.5057 27.4614 54.1047 27.3379 54.5464 27.0908C54.9881 26.8438 55.3138 26.4507 55.5234 25.9116C55.7406 25.3726 55.8828 24.6688 55.9502 23.8003ZM62.5312 11.75V29H60.5435V11.75H62.5312ZM62.0483 22.4639L61.2397 22.4302C61.2323 21.5991 61.3258 20.8317 61.5205 20.1279C61.7227 19.4167 62.0072 18.799 62.374 18.2749C62.7484 17.7508 63.1938 17.3465 63.7104 17.062C64.2271 16.77 64.7998 16.624 65.4287 16.624C65.9229 16.624 66.3721 16.7064 66.7764 16.8711C67.1807 17.0283 67.5251 17.2829 67.8096 17.6348C68.0941 17.9867 68.3112 18.4434 68.4609 19.0049C68.6182 19.5589 68.6968 20.2365 68.6968 21.0376V29H66.709V21.0151C66.709 20.3787 66.6379 19.8696 66.4956 19.4878C66.3608 19.0985 66.1512 18.8177 65.8667 18.6455C65.5897 18.4658 65.2378 18.376 64.811 18.376C64.4217 18.376 64.0586 18.4845 63.7217 18.7017C63.3848 18.9188 63.089 19.2183 62.8345 19.6001C62.5874 19.9819 62.3927 20.4199 62.2505 20.9141C62.1157 21.4007 62.0483 21.9173 62.0483 22.4639ZM76.0078 29.2246C75.2816 29.2246 74.6265 29.116 74.0425 28.8989C73.4585 28.6818 72.9606 28.3524 72.5488 27.9106C72.137 27.4614 71.8226 26.8962 71.6055 26.2148C71.3883 25.5335 71.2798 24.7287 71.2798 23.8003V22.4302C71.2798 21.3595 71.4033 20.4536 71.6504 19.7124C71.9049 18.9712 72.2456 18.376 72.6724 17.9268C73.0991 17.4701 73.582 17.1406 74.1211 16.9385C74.6602 16.7288 75.2142 16.624 75.7832 16.624C76.5469 16.624 77.1982 16.7476 77.7373 16.9946C78.2764 17.2417 78.7144 17.6086 79.0513 18.0952C79.3882 18.5819 79.6353 19.1808 79.7925 19.8921C79.9572 20.6034 80.0396 21.4232 80.0396 22.3516V23.5083H72.4478V21.8125H78.0518V21.5317C78.0218 20.9028 77.9357 20.3488 77.7935 19.8696C77.6587 19.3905 77.4341 19.0161 77.1196 18.7466C76.8052 18.4696 76.3597 18.3311 75.7832 18.3311C75.4163 18.3311 75.0757 18.3947 74.7612 18.522C74.4543 18.6418 74.1885 18.8551 73.9639 19.1621C73.7467 19.4616 73.5745 19.8771 73.4473 20.4087C73.3275 20.9403 73.2676 21.6141 73.2676 22.4302V23.8003C73.2676 24.4517 73.3275 25.0132 73.4473 25.4849C73.5745 25.9491 73.758 26.3346 73.9976 26.6416C74.2446 26.9411 74.5441 27.1657 74.896 27.3154C75.2554 27.4577 75.6634 27.5288 76.1201 27.5288C76.7865 27.5288 77.3368 27.4015 77.771 27.147C78.2052 26.8849 78.5833 26.5518 78.9053 26.1475L79.9497 27.394C79.7326 27.701 79.4481 27.9967 79.0962 28.2812C78.7518 28.5583 78.325 28.7866 77.8159 28.9663C77.3143 29.1385 76.7116 29.2246 76.0078 29.2246ZM86.6543 27.5288C87.0511 27.5288 87.4105 27.4502 87.7324 27.293C88.0618 27.1283 88.3314 26.8737 88.541 26.5293C88.7507 26.1774 88.8704 25.7207 88.9004 25.1592H90.7646C90.7347 25.9678 90.5288 26.679 90.147 27.293C89.7726 27.8994 89.2785 28.3748 88.6646 28.7192C88.0581 29.0562 87.388 29.2246 86.6543 29.2246C85.8682 29.2246 85.1831 29.0973 84.5991 28.8428C84.0226 28.5882 83.5435 28.2214 83.1616 27.7422C82.7873 27.2555 82.5065 26.6678 82.3193 25.979C82.1322 25.2827 82.0386 24.4928 82.0386 23.6094V22.2393C82.0386 21.3558 82.1322 20.5697 82.3193 19.8809C82.5065 19.1846 82.7873 18.5968 83.1616 18.1177C83.5435 17.631 84.0226 17.2604 84.5991 17.0059C85.1831 16.7513 85.8682 16.624 86.6543 16.624C87.4779 16.624 88.1891 16.8 88.7881 17.1519C89.3945 17.4963 89.8662 17.9979 90.2031 18.6567C90.5475 19.3081 90.7347 20.098 90.7646 21.0264H88.9004C88.8704 20.4274 88.7619 19.9295 88.5747 19.5327C88.3875 19.1284 88.133 18.8289 87.811 18.6343C87.4891 18.4321 87.1035 18.3311 86.6543 18.3311C86.1302 18.3311 85.696 18.4246 85.3516 18.6118C85.0146 18.7915 84.7489 19.0535 84.5542 19.3979C84.3595 19.7424 84.221 20.1541 84.1387 20.6333C84.0638 21.1125 84.0264 21.6478 84.0264 22.2393V23.6094C84.0264 24.2008 84.0638 24.7399 84.1387 25.2266C84.221 25.7057 84.3558 26.1175 84.543 26.4619C84.7376 26.8063 85.0072 27.0721 85.3516 27.2593C85.696 27.439 86.1302 27.5288 86.6543 27.5288ZM95.0659 11.75V29H93.0781V11.75H95.0659ZM101.231 16.8486L96.9077 22.52L94.2349 25.5972L94.1001 23.3848L95.9419 20.8467L98.8394 16.8486H101.231ZM99.4121 29L95.998 23.2051L97.02 21.3521L101.726 29H99.4121ZM111.406 12.6484H113.473V24.1597C113.473 25.3875 113.237 26.3721 112.765 27.1133C112.293 27.8545 111.672 28.3936 110.901 28.7305C110.137 29.0599 109.314 29.2246 108.43 29.2246C107.487 29.2246 106.637 29.0599 105.881 28.7305C105.125 28.3936 104.522 27.8545 104.073 27.1133C103.631 26.3721 103.41 25.3875 103.41 24.1597V12.6484H105.465V24.1597C105.465 25.0132 105.585 25.6795 105.825 26.1587C106.072 26.6379 106.416 26.9748 106.858 27.1694C107.307 27.3641 107.831 27.4614 108.43 27.4614C109.037 27.4614 109.561 27.3641 110.002 27.1694C110.452 26.9748 110.796 26.6379 111.036 26.1587C111.283 25.6795 111.406 25.0132 111.406 24.1597V12.6484ZM118.347 19.1846V33.6719H116.359V16.8486H118.167L118.347 19.1846ZM125.141 22.374V23.5083C125.141 24.4666 125.051 25.3052 124.872 26.0239C124.699 26.7352 124.441 27.3304 124.097 27.8096C123.76 28.2812 123.344 28.6369 122.85 28.8765C122.356 29.1086 121.791 29.2246 121.154 29.2246C120.518 29.2246 119.964 29.1048 119.492 28.8652C119.028 28.6182 118.635 28.2625 118.313 27.7983C117.999 27.3341 117.748 26.7764 117.561 26.125C117.381 25.4661 117.257 24.7287 117.19 23.9126V22.1831C117.257 21.3221 117.381 20.5509 117.561 19.8696C117.74 19.1808 117.987 18.5968 118.302 18.1177C118.624 17.631 119.017 17.2604 119.481 17.0059C119.953 16.7513 120.503 16.624 121.132 16.624C121.783 16.624 122.356 16.7363 122.85 16.9609C123.352 17.1855 123.771 17.5337 124.108 18.0054C124.452 18.4696 124.711 19.0648 124.883 19.791C125.055 20.5098 125.141 21.3708 125.141 22.374ZM123.153 23.5083V22.374C123.153 21.7002 123.101 21.1125 122.996 20.6108C122.899 20.1092 122.742 19.6937 122.524 19.3643C122.307 19.0348 122.034 18.7878 121.705 18.623C121.375 18.4583 120.978 18.376 120.514 18.376C120.117 18.376 119.765 18.4583 119.458 18.623C119.159 18.7878 118.901 19.0124 118.684 19.2969C118.466 19.5739 118.287 19.8921 118.145 20.2515C118.002 20.6034 117.897 20.9702 117.83 21.3521V24.7549C117.957 25.234 118.126 25.687 118.335 26.1138C118.545 26.533 118.826 26.8737 119.178 27.1357C119.537 27.3978 119.99 27.5288 120.537 27.5288C120.993 27.5288 121.386 27.4465 121.716 27.2817C122.045 27.117 122.315 26.87 122.524 26.5405C122.742 26.2036 122.899 25.7843 122.996 25.2827C123.101 24.7736 123.153 24.1821 123.153 23.5083Z" fill="white"/>
    <path d="M135.334 19.9421V21H131.075V19.9421H135.334ZM131.298 11.1891V21H130.058V11.1891H131.298ZM134.761 15.4072V16.4651H131.075V15.4072H134.761ZM135.267 11.1891V12.2537H131.075V11.1891H135.267ZM138.046 13.7092L139.272 16.3641L140.519 13.7092H141.9L139.926 17.3074L141.954 21H140.586L139.299 18.2643L138.005 21H136.631L138.659 17.3074L136.685 13.7092H138.046Z" fill="#D20A11"/>
</svg>
